<svg xmlns="http://www.w3.org/2000/svg" xmlns:xlink="http://www.w3.org/1999/xlink" viewBox="0 0 434.2 322"><defs><clipPath id="b61035f6-9fb3-48de-a528-33a4271f8c0b" transform="translate(-1348.8 42.7)"><path id="e7649c38-b98d-4e76-a815-5ae90cf1b421" data-name="SVGID" d="M1501.4,109c-5.7,3.9-9.1,9-7.4,11.4s7.6,1.4,13.4-2.4,9.1-8.9,7.4-11.4a2,2,0,0,0-1.1-.9c-2.4-1.2-7.4.1-12.3,3.3" fill="none"/></clipPath><linearGradient id="bbd5b36d-4f9c-48f2-89b6-6bb8f89af617" x1="99.31" y1="4513.4" x2="99.65" y2="4513.4" gradientTransform="matrix(67.46, 0, 0, 67.46, -5199.14, -304374.87)" gradientUnits="userSpaceOnUse"><stop offset="0" stop-color="#85b644"/><stop offset="0.08" stop-color="#8cba48"/><stop offset="0.42" stop-color="#a3c856"/><stop offset="0.73" stop-color="#b1d15e"/><stop offset="1" stop-color="#b6d461"/></linearGradient><clipPath id="ad79ac96-1ed3-4b42-afe7-a83a3ca9b2bc" transform="translate(-1348.8 42.7)"><path id="b1502acc-773c-44f6-a03d-27b928a5b3db" data-name="SVGID" d="M1622.7,127.9c-2.1,2.1.2,7.8,5.2,12.6s10.6,7.1,12.7,4.9-.2-7.7-5.2-12.6-9.9-6.7-12.3-5.3l-.4.4" fill="none"/></clipPath><linearGradient id="f8cb4491-2508-4da4-b095-9f4e4d380e0a" x1="53.7" y1="4583.92" x2="54.04" y2="4583.92" gradientTransform="translate(-307658.2 3761.8) rotate(-90) scale(67.47)" xlink:href="#bbd5b36d-4f9c-48f2-89b6-6bb8f89af617"/><clipPath id="bb000399-778d-406c-81ab-41f0fa94945c" transform="translate(-1348.8 42.7)"><path id="f14e395e-f691-44f8-834e-f25dbd2fa2ad" data-name="SVGID" d="M1582.1,157c-2.9.5-4.4,6.4-3.2,13.2s4.5,12,7.4,11.5,4.4-6.4,3.2-13.3-4.1-11.2-6.8-11.4h-.6" fill="none"/></clipPath><linearGradient id="fecc0961-33ee-4803-921d-ed70342cc7da" x1="82.95" y1="4573.36" x2="83.29" y2="4573.36" gradientTransform="translate(-306993.2 5778) rotate(-90) scale(67.47)" xlink:href="#bbd5b36d-4f9c-48f2-89b6-6bb8f89af617"/><clipPath id="a1fcbc82-ed9e-4912-baee-83dd04f0ead6" transform="translate(-1348.8 42.7)"><path id="b333ab55-e5a5-430f-881b-d8bc532c1535" data-name="SVGID" d="M1520.2,150.9c-4,5.6-5.3,11.6-2.8,13.3s7.6-1.4,11.6-7.1,5.3-11.6,2.9-13.3a3.4,3.4,0,0,0-1.4-.5c-2.7-.2-6.9,2.9-10.3,7.6" fill="none"/></clipPath><linearGradient id="ec1b0c72-b727-45ea-ba08-814115b73134" x1="98.3" y1="4532.38" x2="98.64" y2="4532.38" gradientTransform="matrix(67.46, 0, 0, 67.46, -5104.15, -305614.93)" xlink:href="#bbd5b36d-4f9c-48f2-89b6-6bb8f89af617"/><clipPath id="a5c95282-89aa-4b7c-be73-f958513535fd" transform="translate(-1348.8 42.7)"><path id="fbdbfb93-982e-4d9f-ad7c-1956b06ada78" data-name="SVGID" d="M1520.4,61.5A67.1,67.1,0,1,0,1577.2,37a67,67,0,0,0-56.8,24.5" fill="none"/></clipPath><linearGradient id="b32927d0-c304-49b8-a0a3-9a65c8c407e3" x1="37.28" y1="4543.03" x2="37.62" y2="4543.03" gradientTransform="matrix(-392.5, 0, 0, -392.5, 16269.66, 1783268.8)" gradientUnits="userSpaceOnUse"><stop offset="0" stop-color="#b6d461"/><stop offset="1" stop-color="#b6d461"/><stop offset="1" stop-color="#85b644"/></linearGradient><clipPath id="ad5d6097-e2db-44d0-8083-ed4eeefadb5e" transform="translate(-1348.8 42.7)"><path id="f8c8d9d3-d6ad-4711-8e8e-4526d7923e3f" data-name="SVGID" d="M1538.4,49.3a64.3,64.3,0,1,0,38.5-9.6,64.3,64.3,0,0,0-38.5,9.6" fill="none"/></clipPath><linearGradient id="bbe041c7-8737-4c80-bf59-b52e0cb7be43" x1="44.92" y1="4542.21" x2="45.27" y2="4542.21" gradientTransform="matrix(0, -376.45, 376.45, 0, -1708339.3, 17089.71)" xlink:href="#bbd5b36d-4f9c-48f2-89b6-6bb8f89af617"/><clipPath id="bef95276-35b1-462e-8923-7c149b9cc0b6" transform="translate(-1348.8 42.7)"><path id="ffb45968-92f5-4dbc-8db6-df959a090eaa" data-name="SVGID" d="M1592.2,80.8a15.1,15.1,0,0,0,3,30.1,15.2,15.2,0,0,0-.4-30.2h-2.6" fill="none"/></clipPath><linearGradient id="f2e82699-7e54-4d77-8ad2-4d3f933cd143" x1="60.97" y1="4571.37" x2="61.31" y2="4571.37" gradientTransform="translate(-403154.4 5490.9) rotate(-90) scale(88.54)" gradientUnits="userSpaceOnUse"><stop offset="0" stop-color="#231815"/><stop offset="0.34" stop-color="#322b29"/><stop offset="0.69" stop-color="#3d3837"/><stop offset="1" stop-color="#413d3c"/></linearGradient><clipPath id="a308683e-3ab6-4e7b-9d12-9cf3b013012f" transform="translate(-1348.8 42.7)"><path id="beace540-b897-4206-abb7-9de23816c5bb" data-name="SVGID" d="M1591.6,86.7a9.4,9.4,0,0,0-8.5,10.3,9.6,9.6,0,0,0,10.4,8.5,9.4,9.4,0,0,0,8.4-10.4,9.3,9.3,0,0,0-8.7-8.4,4.3,4.3,0,0,0-1.6,0" fill="none"/></clipPath><linearGradient id="bfb3ae42-ab7c-4f5a-9315-5df9ae9b1dbc" x1="58.34" y1="4466.24" x2="58.68" y2="4466.24" gradientTransform="translate(-1613.4 -246307.7) rotate(0) scale(55.17)" gradientUnits="userSpaceOnUse"><stop offset="0" stop-color="#898a8a"/><stop offset="0.02" stop-color="#878888"/><stop offset="0.38" stop-color="#727271"/><stop offset="0.71" stop-color="#656463"/><stop offset="1" stop-color="#605f5e"/></linearGradient><clipPath id="b58f201d-eb52-42e8-8fe2-ed2d78deee69" transform="translate(-1348.8 42.7)"><path id="bfd176af-7b33-4088-86f6-2b39d2e91a05" data-name="SVGID" d="M1534.4,71.5a15.4,15.4,0,1,0,2.6,0h-2.6" fill="none"/></clipPath><linearGradient id="ad40ae1c-9132-4ed7-93c0-d354ddcbedba" x1="61.54" y1="4571.04" x2="61.88" y2="4571.04" gradientTransform="translate(-403182.5 5553.9) rotate(-90) scale(88.54)" xlink:href="#f2e82699-7e54-4d77-8ad2-4d3f933cd143"/><clipPath id="b80e6671-b26f-4dec-9c49-87d69e560a10" transform="translate(-1348.8 42.7)"><path id="b63d0289-7055-44a7-aa3e-96860ebcc6fd" data-name="SVGID" d="M1533.8,77.4a9.4,9.4,0,1,0,1.9,18.8,9.4,9.4,0,0,0-.3-18.8h-1.6" fill="none"/></clipPath><linearGradient id="a4e5a0f8-6f61-4d7e-a503-3dd6ce360fbc" x1="57.31" y1="4465.96" x2="57.66" y2="4465.96" gradientTransform="matrix(55.17, 0, 0, 55.17, -1628.4, -246301.78)" xlink:href="#bfb3ae42-ab7c-4f5a-9315-5df9ae9b1dbc"/></defs><title>01_遊戲首頁v1.1.3</title><g style="isolation:isolate"><g id="bfd34f9c-e375-4133-a3f1-438035ef2a7a" data-name="圖層 4"><g id="a3ce5eb0-436d-4b13-ac85-be0f06bcba49" data-name="圖層 3"><path d="M1419.5,133.9c36.6,15.4,89.8,31.1,163.8,38.5,22.3,1.6,52-.7,82-5a128.5,128.5,0,0,0,32.9-24.4C1552.7,166,1428.9,136.3,1419.5,133.9Z" transform="translate(-1348.8 42.7)" fill="#654624"/><path d="M1711.7,126.7a124.7,124.7,0,0,0,10-17h-.2c-155.5,26.9-337.8-6.2-364.6-11.4a200.2,200.2,0,0,0,25.7,17.5C1396.6,118.6,1558,151,1711.7,126.7Z" transform="translate(-1348.8 42.7)" fill="#73502b"/><path d="M1382.6,115.7a326.2,326.2,0,0,0,36.9,18.2c9.4,2.4,133.2,32.1,278.7,9.1a136.2,136.2,0,0,0,13.5-16.3C1558,151,1396.6,118.6,1382.6,115.7Z" transform="translate(-1348.8 42.7)" fill="#694a27"/><polygon points="199.2 189.3 241.4 222.2 274.9 215.7 231.5 184.9 200.3 185.6 199.2 189.3" fill="#93642d"/><g opacity="0.5" style="mix-blend-mode:multiply"><polygon points="199.2 189.3 241.4 222.2 244.6 221.6 199.9 186.8 199.2 189.3" fill="#93642d"/></g><g opacity="0.5" style="mix-blend-mode:multiply"><path d="M1580.3,142.3l-31.2.6-1.1,3.8,42.2,32.9,33.5-6.6Zm35.2,31.5-6.1,1.2-33.9-25.7,32.5,25.3-5.8,1.3-27.7-21.1,26,21.4-6.5,1.7-41.9-32.7c21.9,2,31.2.1,31.2.1l37.5,26.9-3.9,1.2-11.9-9.7Z" transform="translate(-1348.8 42.7)" fill="#93642d"/></g><path d="M1591.5,171.9c0,.2-.4.3-.9.2a.7.7,0,0,1-.7-.5c.1-.3.4-.4.9-.4S1591.6,171.6,1591.5,171.9Z" transform="translate(-1348.8 42.7)" fill="#93642d" style="mix-blend-mode:multiply"/><path d="M1607.7,168.6c0,.3-.4.4-.9.3a.7.7,0,0,1-.7-.6.8.8,0,0,1,.9-.3C1607.4,168.1,1607.7,168.4,1607.7,168.6Z" transform="translate(-1348.8 42.7)" fill="#93642d" style="mix-blend-mode:multiply"/><path d="M1406.5,161.5a164.7,164.7,0,0,0,14.4,12.1c89.6,52,215.8,49.3,271.1,45.3,26.3-1.9,44.4-15.5,57-30.4C1589.8,231.9,1450.5,180.8,1406.5,161.5Z" transform="translate(-1348.8 42.7)" fill="#93642d"/><path d="M1382.1,135a247.6,247.6,0,0,0,24.4,26.5c44,19.3,183.3,70.4,342.5,27,9.8-11.4,16.3-23.6,20.7-31.8C1591.7,228,1417.1,151.9,1382.1,135Z" transform="translate(-1348.8 42.7)" fill="#9a632b"/><path d="M1783,136.4c-29.4,17.6-140.6,40.1-199.7,36C1440.1,158,1374.8,113,1356.9,98.2h-.4a314.7,314.7,0,0,0,25.6,36.9c35,16.9,209.6,93,387.6,21.7,2.8-5.1,4.8-8.5,6.2-9.2C1782.7,144.2,1783,136.4,1783,136.4Z" transform="translate(-1348.8 42.7)" fill="#a46329"/><g opacity="0.2" style="mix-blend-mode:multiply"><path d="M1783,136.4c-29.4,17.6-140.6,40.1-199.7,36C1440.1,158,1374.8,113,1356.9,98.2h-.4a314.7,314.7,0,0,0,25.6,36.9,247.6,247.6,0,0,0,24.4,26.5,164.7,164.7,0,0,0,14.4,12.1c89.6,52,215.8,49.3,271.1,45.3,26.3-1.9,44.4-15.5,57-30.4,9.8-11.4,16.3-23.6,20.7-31.8,2.8-5.1,4.8-8.5,6.2-9.2C1782.7,144.2,1783,136.4,1783,136.4Zm-184,79.9C1417.5,202.1,1368.1,111,1368.1,111c153.3,85.4,278.7,64.3,278.7,64.3s8.6,16.1,12.9,31.3C1661.7,213.6,1637.7,217.3,1599,216.3Zm179.4-73.5c-2.7,4.5-7.5,5-9.8,8.4-3.4,6.5-9.8,18.5-25.5,37.6s-64.5,25.3-67.1,18.8-15.4-34.3-15.4-34.3C1740.1,163.5,1781.2,138.4,1778.4,142.8Z" transform="translate(-1348.8 42.7)" fill="#6d4c20"/></g><path d="M1574.4,214.7s87.3,12,141-7.2C1715.4,207.5,1679,229.6,1574.4,214.7Z" transform="translate(-1348.8 42.7)" fill="#93642d" opacity="0.5" style="mix-blend-mode:multiply"/><path d="M1665.3,167.4a655,655,0,0,0,66.9-13.2l-30.4-15.1A129.8,129.8,0,0,1,1665.3,167.4Z" transform="translate(-1348.8 42.7)" fill="#4f371a"/><path d="M1783,136.4l-61.3-26.7a119.4,119.4,0,0,1-9.8,16.7l45.3,20.7C1768.3,143.5,1777.2,139.8,1783,136.4Z" transform="translate(-1348.8 42.7)" fill="#5f4323"/><path d="M1711.9,126.4a127,127,0,0,1-10.1,12.7l30.4,15.1c9.1-2.3,17.5-4.7,25-7.1Z" transform="translate(-1348.8 42.7)" fill="#553c1e"/><g opacity="0.3" style="mix-blend-mode:multiply"><path d="M1721.7,109.7a119.4,119.4,0,0,1-9.8,16.7,127,127,0,0,1-10.1,12.7,129.8,129.8,0,0,1-36.5,28.3,655,655,0,0,0,66.9-13.2c9.1-2.3,17.5-4.7,25-7.1,11.1-3.6,20-7.3,25.8-10.7Zm-6.6,42.6-14.7-9.6c4.6-3.3,20.4-26.1,20.4-26.1l48.9,20.5C1756.9,141.8,1715.1,152.3,1715.1,152.3Z" transform="translate(-1348.8 42.7)" fill="#5b3f20"/></g><polygon points="290.2 170.4 332.4 203.3 365.9 196.7 322.5 166 291.3 166.6 290.2 170.4" fill="#a46329"/><g opacity="0.5" style="mix-blend-mode:multiply"><polygon points="290.2 170.4 332.4 203.3 335.6 202.7 290.9 167.9 290.2 170.4" fill="#93642d"/></g><g opacity="0.5" style="mix-blend-mode:multiply"><path d="M1671.3,123.4l-31.3.6-1,3.8,42.1,32.9,33.5-6.6Zm35.2,31.5-6.1,1.2-33.9-25.8,32.4,25.4-5.7,1.2-27.7-21,26,21.4L1685,159l-42-32.7c22,1.9,31.2.1,31.2.1l37.6,26.9-4,1.1-11.8-9.6Z" transform="translate(-1348.8 42.7)" fill="#93642d"/></g><path d="M1682.5,152.9c-.1.3-.5.4-.9.3s-.8-.3-.7-.6.4-.4.9-.3S1682.5,152.6,1682.5,152.9Z" transform="translate(-1348.8 42.7)" fill="#93642d" style="mix-blend-mode:multiply"/><path d="M1698.7,149.7a.8.8,0,0,1-.9.3c-.4-.1-.8-.4-.7-.6s.4-.4.9-.3S1698.7,149.4,1698.7,149.7Z" transform="translate(-1348.8 42.7)" fill="#93642d" style="mix-blend-mode:multiply"/><path d="M1581.8,168c-4.3-.6-19-6.6-22.9-5.6L1542,167c10,1.6,26.3,4.1,41.8,5C1583.2,170.4,1584.7,168.5,1581.8,168Z" transform="translate(-1348.8 42.7)" fill="#684925"/><path d="M1721.7,109.7h-.2c-14.1,2.4-28.3,4.4-42.7,5.9.4.8.9,2.1,1.4,3.4,12.9-1.3,26-2.9,39.2-4.8l54.4,22.8s-38.7,15.4-97.5,24.1l-.5.3.5-.3c-7.3,1.1-14.8,2-22.7,2.9-40.2,6.9-79,2.9-87.3,2-61.7-4-130.3-20.5-195.3-61.8,0,0,73,16.9,178.9,19.5a5.1,5.1,0,0,1,2-1.7,24.1,24.1,0,0,1,9.1-1.4,92.1,92.1,0,0,1,17,1.7s-.4,0-.3.2c2.3-.5,2.9-1.6,3-2.4-109.2-.7-205-18.1-223.8-21.8a200.2,200.2,0,0,0,25.7,17.5,326.2,326.2,0,0,0,36.9,18.2c36.6,15.4,88.8,31.6,163.8,38.5,22.3,2.1,52-.7,82-5a655,655,0,0,0,66.9-13.2c9.1-2.3,17.5-4.7,25-7.1,11.1-3.6,20-7.3,25.8-10.7Z" transform="translate(-1348.8 42.7)" fill="#b97534"/><path d="M1530.1,121.3c-.2.7-1.5.9-2.9.5s-2.4-1.2-2.2-1.9,1.4-.9,2.9-.5S1530.3,120.6,1530.1,121.3Z" transform="translate(-1348.8 42.7)" fill="#b76a32" opacity="0.5" style="mix-blend-mode:multiply"/><path d="M1547.9,121.3c-.2.7-1.5.9-2.9.5s-2.3-1.2-2.2-1.9,1.5-.9,2.9-.5S1548.1,120.7,1547.9,121.3Z" transform="translate(-1348.8 42.7)" fill="#b76a32" opacity="0.5" style="mix-blend-mode:multiply"/><path d="M1527.3,121.3h-.1a2,2,0,0,1-1.2-2.6c.2-.5,4.4-11.1,14.2-11.6,3.4-.1,5.3,1.3,6.3,2.6,3,3.7,1.4,9.9,1.2,10.6a2,2,0,0,1-2.5,1.4,2,2,0,0,1-1.4-2.5c.3-1.2,1-5.2-.5-7-.2-.3-.9-1.1-3-1-7,.3-10.5,8.9-10.5,9a2.2,2.2,0,0,1-2.5,1.2Z" transform="translate(-1348.8 42.7)" fill="#753924"/><g opacity="0.5" style="mix-blend-mode:multiply"><path d="M1542.7,110.1c-5.4-2.5-11.1,5.3-11.1,5.3h0c2.4-2,4.8-4.3,8.3-4.5s3,.8,3.2,1.1c1.4,1.8.9,5.7.6,7a1.8,1.8,0,0,0,.9,2.3C1545.5,118.6,1546.9,112,1542.7,110.1Z" transform="translate(-1348.8 42.7)" fill="#753924"/></g><path d="M1356.5,98.1l-3-.6-4.7-.7s24.9,39.8,53.8,65c5.9,4.2,12,8.2,18.3,11.8C1388.2,149.2,1364.1,111,1356.5,98.1Z" transform="translate(-1348.8 42.7)" fill="#885c2a"/><path d="M1702.3,138.6l1.6-1.8Z" transform="translate(-1348.8 42.7)" fill="#5b3f20"/><path d="M1708.8,130.7l-3.1,3.9Z" transform="translate(-1348.8 42.7)" fill="#5b3f20"/><path d="M1719.3,114.4h0c-.2-.1-.3-.3-.2-.4l2.3-4.5c.1-.1.3-.2.4-.1s.2.2.1.4l-2.2,4.5c-.1.1-.2.2-.4.1Z" transform="translate(-1348.8 42.7)" fill="#753924" opacity="0.5" style="mix-blend-mode:multiply"/><path d="M1371.8,104.4h-.1c0,.2-.2.3-.4.2l-14.2-5.9a.4.4,0,0,1-.2-.4c.1-.2.3-.2.5-.2l14.2,5.9a.5.5,0,0,1,.2.4Z" transform="translate(-1348.8 42.7)" fill="#753924" opacity="0.5" style="mix-blend-mode:multiply"/><path d="M1773.9,136.3c-.2-.1-.4.3-.4.2s.1-.1.3-.1l8.5-.4a.3.3,0,0,1,.3.3c0,.2,0-.1-.2-.1h-8.5Z" transform="translate(-1348.8 42.7)" fill="#753924" opacity="0.5" style="mix-blend-mode:multiply"/><g opacity="0.2" style="mix-blend-mode:multiply"><path d="M1356.5,98.1l-3-.6-4.7-.7s24.9,39.8,53.8,65c5.9,4.2,12,8.2,18.3,11.8C1388.2,149.2,1364.1,111,1356.5,98.1Zm-5.7-.2,5.2.7s23.6,42.6,55,67.3C1411,165.9,1389.2,154.7,1350.8,97.9Z" transform="translate(-1348.8 42.7)" fill="#885c2a"/></g><path d="M1767.2,156.4s-15.2,29.8-31.4,40C1735.8,196.4,1752.7,190.3,1767.2,156.4Z" transform="translate(-1348.8 42.7)" fill="#93642d" opacity="0.5" style="mix-blend-mode:multiply"/><path d="M1780.4,138s-34.3,15.8-80.3,23.3C1700.1,161.3,1753.5,154.1,1780.4,138Z" transform="translate(-1348.8 42.7)" fill="#93642d" opacity="0.5" style="mix-blend-mode:multiply"/><g opacity="0.5" style="mix-blend-mode:multiply"><path d="M1721.7,109.7h-.2c-14.1,2.4-28.3,4.4-42.7,5.9.4.8.9,2.1,1.4,3.4,12.9-1.3,26-2.9,39.2-4.8l54.4,22.8s-38.7,15.4-97.5,24.1l-.5.3.5-.3c-7.3,1.1-14.8,2-22.7,2.9-40.2,6.9-79,2.9-87.3,2-61.7-4-130.3-20.5-195.3-61.8,0,0,73,16.9,178.9,19.5a5.1,5.1,0,0,1,2-1.7,24.1,24.1,0,0,1,9.1-1.4,92.1,92.1,0,0,1,17,1.7s-.4,0-.3.2c2.3-.5,2.9-1.6,3-2.4-109.2-.7-205-18.1-223.8-21.8a200.2,200.2,0,0,0,25.7,17.5,326.2,326.2,0,0,0,36.9,18.2c36.6,15.4,88.8,31.6,163.8,38.5,22.3,2.1,52-.7,82-5a655,655,0,0,0,66.9-13.2c9.1-2.3,17.5-4.7,25-7.1,11.1-3.6,20-7.3,25.8-10.7Zm-3.5,3.7-37.4,4.5-.3-1.7,38.5-5.4Zm-196.8,5.9.9,2c-40.7.1-140.4-15.7-140.4-15.7l-15.5-4.5C1447.2,115,1521.4,119.3,1521.4,119.3Zm-134.6-2.5c131.7,67,247.9,50.8,247.9,50.8l1,2.2C1501.2,182,1386.8,116.8,1386.8,116.8Zm386.4,18.9L1720.9,114l1.6-3.2,55.3,24.1Zm-108.1,30.6v-2.8c57.7-7.1,108.1-25.5,108.1-25.5l5.7-.4C1742.7,154.9,1665.1,166.3,1665.1,166.3Z" transform="translate(-1348.8 42.7)" fill="#b97534"/></g><path d="M1645,168.3c-.1.7-1.4,1-2.8.7s-2.5-1-2.4-1.7,1.4-1,2.8-.7S1645.1,167.6,1645,168.3Z" transform="translate(-1348.8 42.7)" fill="#b76a32" opacity="0.5" style="mix-blend-mode:multiply"/><path d="M1662.8,166.8c-.1.7-1.4,1-2.8.7s-2.5-1-2.4-1.7,1.4-1,2.8-.7S1662.9,166.1,1662.8,166.8Z" transform="translate(-1348.8 42.7)" fill="#b76a32" opacity="0.5" style="mix-blend-mode:multiply"/><path d="M1642.3,168.5h-.2a2.2,2.2,0,0,1-1.4-2.6c.1-.4,3.4-11.4,13.1-12.7,3.5-.4,5.5.8,6.6,2,3.2,3.5,2.1,9.8,2,10.5a2,2,0,0,1-2.3,1.6,2.1,2.1,0,0,1-1.7-2.4c.3-1.2.6-5.3-1-6.9s-1-1-3.1-.8c-7,1-9.7,9.8-9.7,9.9a2,2,0,0,1-2.3,1.4Z" transform="translate(-1348.8 42.7)" fill="#753924"/><g opacity="0.5" style="mix-blend-mode:multiply"><path d="M1657,156.1c-5.5-2-10.2,6.3-10.2,6.3h0c1.6-2.4,4-4.8,7.5-5.3s2.9.5,3.1.8,1.3,5.7,1,6.9a2.1,2.1,0,0,0,1.4,2.3C1660.4,164.3,1661.4,157.6,1657,156.1Z" transform="translate(-1348.8 42.7)" fill="#753924"/></g><path d="M1649.2,129.3s21.5,2.4,28.5,0C1677.7,129.3,1673.9,132.6,1649.2,129.3Z" transform="translate(-1348.8 42.7)" fill="#93642d" opacity="0.5" style="mix-blend-mode:multiply"/><image width="323" height="322" transform="translate(68.6)" opacity="0.6" xlink:href="01_%E9%81%8A%E6%88%B2%E9%A6%96%E9%A0%81v1.1.31.png" style="mix-blend-mode:multiply"/><g clip-path="url(#b61035f6-9fb3-48de-a528-33a4271f8c0b)"><rect x="1491.6" y="103.9" width="25" height="20.33" transform="translate(-715.9 1388.1) rotate(-59.1)" fill="url(#bbd5b36d-4f9c-48f2-89b6-6bb8f89af617)"/></g><g clip-path="url(#ad79ac96-1ed3-4b42-afe7-a83a3ca9b2bc)"><rect x="1618.5" y="122.9" width="26.5" height="28.15" transform="translate(-375.2 1679) rotate(-71.1)" fill="url(#f8cb4491-2508-4da4-b095-9f4e4d380e0a)"/></g><g clip-path="url(#bb000399-778d-406c-81ab-41f0fa94945c)"><rect x="1570.9" y="155.6" width="26.5" height="28.15" transform="translate(-1157.3 986.1) rotate(-35.2)" fill="url(#fecc0961-33ee-4803-921d-ed70342cc7da)"/></g><g clip-path="url(#a1fcbc82-ed9e-4912-baee-83dd04f0ead6)"><rect x="1512.1" y="144.4" width="25" height="20.33" transform="translate(-236.8 1673.1) rotate(-80.2)" fill="url(#ec1b0c72-b727-45ea-ba08-814115b73134)"/></g><g clip-path="url(#a5c95282-89aa-4b7c-be73-f958513535fd)"><rect x="1484.7" y="24.9" width="174.6" height="167.23" transform="translate(-1351.7 200.2) rotate(-5.7)" fill="url(#b32927d0-c304-49b8-a0a3-9a65c8c407e3)"/></g><g clip-path="url(#ad5d6097-e2db-44d0-8083-ed4eeefadb5e)"><rect x="1473.9" y="9" width="196.4" height="198.5" transform="translate(-855.7 1299.4) rotate(-50.7)" fill="url(#bbe041c7-8737-4c80-bf59-b52e0cb7be43)"/></g><path d="M1631.5,59.7c-1,3.7,1.8,7.6,6.2,8.7s8.8-.8,9.7-4.4-1.8-7.5-6.2-8.7-8.7.8-9.7,4.4" transform="translate(-1348.8 42.7)" fill="#efdc3c"/><path d="M1623.6,57c-2.6,2.7-2,7.5,1.3,10.6s8.1,3.4,10.7.7,2-7.5-1.3-10.6-8.1-3.4-10.7-.7" transform="translate(-1348.8 42.7)" fill="#efdc3c"/><path d="M1632.1,67.1c-1.9,3.2-.2,7.7,3.7,10s8.7,1.5,10.6-1.8.2-7.7-3.8-10-8.6-1.5-10.5,1.8" transform="translate(-1348.8 42.7)" fill="#efdc3c"/><path d="M1624.1,56.3c2.5,2.8,7.3,2.6,10.6-.5s4.1-7.7,1.6-10.5-7.3-2.6-10.7.4-4.1,7.8-1.5,10.6" transform="translate(-1348.8 42.7)" fill="#eebc2a"/><path d="M1614.3,45.9c-2.6,2.8-2,7.5,1.3,10.6s8.1,3.4,10.7.7,2-7.5-1.3-10.6-8.1-3.4-10.7-.7" transform="translate(-1348.8 42.7)" fill="#eebc2a"/><path d="M1622.8,56c-1.9,3.2-.2,7.7,3.7,10s8.7,1.5,10.6-1.8.2-7.7-3.8-10-8.6-1.5-10.5,1.8" transform="translate(-1348.8 42.7)" fill="#eebc2a"/><path d="M1639,64.4a6,6,0,0,1-2.2,3.6l-.2.2h-.3l-.3.2-.3.2h-.3l-.3.2a12.9,12.9,0,0,1-2.1.6h-1.4c-6.9-.3-9.4-7.4-10.5-13-.1-.9-.3-1.7-.4-2.6a.7.7,0,0,1-.1-.5,13.1,13.1,0,0,0-2-5.2l-.2-.2a6,6,0,0,0-5.5-2h-.5a1.4,1.4,0,0,1-.2-.6c-.2-.4-.3-.9-.5-1.4v-.4h.4a8.7,8.7,0,0,1,7.7,2.3c2.4,2.4,3.1,5.6,3.7,8.8s1.8,10.8,6.8,12.6c3,.9,6.9-.2,7.5-3.7s-3.6-5.4-5.7-5.6a9.2,9.2,0,0,0-5.8.8l-.7.3h-.5l.3-.2,2.8-1c4.7-1.1,11.6,1.5,10.8,7.5" transform="translate(-1348.8 42.7)" fill="#008742"/><path d="M1617.9,55.3l-1.4-.6a16.2,16.2,0,0,1-8.9-17.2l2.4.2a17.1,17.1,0,0,0,7.9,17.6" transform="translate(-1348.8 42.7)" fill="#7db82e"/><path d="M1620.9,59.6V60h0v-.2h-3.7a16.4,16.4,0,0,1-5.4-.8l-.4-.2-.4-.2h-.5l-.4-.2-.4-.3-.4-.2c-2.9-2-4.5-4.7-4.2-8.2V48.8l.2-.3c0-.1.1-.2.2-.4s.2-.3.2-.4a.3.3,0,0,0,.1-.2l.4-.6h.1l1.3,2.6V52c0,5.1,5.9,7.4,10.2,7.8h1.6l1.1-.2" transform="translate(-1348.8 42.7)" fill="#7db82e"/><path d="M1576.7,97.8a18.8,18.8,0,1,0,16.9-20.6,18.8,18.8,0,0,0-16.9,20.6" transform="translate(-1348.8 42.7)" fill="#fff"/><g clip-path="url(#bef95276-35b1-462e-8923-7c149b9cc0b6)"><rect x="1571.4" y="74" width="44.6" height="44.88" transform="translate(-838.4 1311.9) rotate(-50.7)" fill="url(#f2e82699-7e54-4d77-8ad2-4d3f933cd143)"/></g><g clip-path="url(#a308683e-3ab6-4e7b-9d12-9cf3b013012f)"><rect x="1580.8" y="85.1" width="23.4" height="22.81" transform="translate(-1350.4 202.3) rotate(-5.7)" fill="url(#bfb3ae42-ab7c-4f5a-9315-5df9ae9b1dbc)"/></g><path d="M1589.2,93.3a6.8,6.8,0,1,0,6.1-7.4,6.7,6.7,0,0,0-6.1,7.4" transform="translate(-1348.8 42.7)" fill="#fff"/><path d="M1586.5,102.9a3,3,0,0,0,6-.6,3,3,0,1,0-6,.6" transform="translate(-1348.8 42.7)" fill="#fff"/><path d="M1601.5,126.8c-.3,2.1,3.6,4.5,8.7,5.4s9.6-.2,10-2.3-3.5-4.6-8.7-5.5-9.6.2-10,2.4" transform="translate(-1348.8 42.7)" fill="#f0b7bb"/><path d="M1509.7,106.7c-.8,2,2.6,5.1,7.5,6.9s9.5,1.6,10.3-.4-2.7-5.2-7.6-7-9.5-1.5-10.2.5" transform="translate(-1348.8 42.7)" fill="#f0b7bb"/><path d="M1518.9,88.6a18.8,18.8,0,1,0,16.9-20.7,18.9,18.9,0,0,0-16.9,20.7" transform="translate(-1348.8 42.7)" fill="#fff"/><g clip-path="url(#b58f201d-eb52-42e8-8fe2-ed2d78deee69)"><rect x="1513.6" y="64.7" width="44.6" height="44.88" transform="translate(-852.6 1263.7) rotate(-50.7)" fill="url(#ad40ae1c-9132-4ed7-93c0-d354ddcbedba)"/></g><g clip-path="url(#b80e6671-b26f-4dec-9c49-87d69e560a10)"><rect x="1523" y="75.8" width="23.4" height="22.81" transform="translate(-1349.8 196.4) rotate(-5.7)" fill="url(#a4e5a0f8-6f61-4d7e-a503-3dd6ce360fbc)"/></g><path d="M1531.4,84.1a6.8,6.8,0,1,0,6.1-7.5,6.8,6.8,0,0,0-6.1,7.5" transform="translate(-1348.8 42.7)" fill="#fff"/><path d="M1528.7,93.7a3,3,0,0,0,3.3,2.7,3,3,0,0,0,2.7-3.3,3.1,3.1,0,0,0-3.3-2.8,3,3,0,0,0-2.7,3.4" transform="translate(-1348.8 42.7)" fill="#fff"/><path d="M1578.3,119.6c-1.6-1.7-3.9,1-2.3,2.6,3.1,3.4-1,7.5-4.5,7.7s-9.2-2.8-7.8-7.2a1,1,0,0,0-.9-1.4,1.6,1.6,0,0,0-2.6.3c-.9,1.8-1.3,3.3-3.1,4.5a5.5,5.5,0,0,1-5.8.6c-3.2-1.7-3.9-6.2-2.3-9.2a1.3,1.3,0,0,0-2.2-1.4,9.3,9.3,0,0,0,3.3,13.9c3.3,1.5,8.1.4,10.8-2.3,2,3.7,8.2,6.1,12.1,5.5,6.4-1,10-8.6,5.3-13.6" transform="translate(-1348.8 42.7)" fill="#4a3e37"/><path d="M1499.6,122.3l-6,1.6a6.2,6.2,0,0,1-7.7-4.5l-1.6-6a6.4,6.4,0,0,1,4.5-7.8l6-1.6a6.4,6.4,0,0,1,7.8,4.6l1.5,6A6.3,6.3,0,0,1,1499.6,122.3Zm-10.3-14.6a4.2,4.2,0,0,0-2.9,5.1l1.6,6a4.1,4.1,0,0,0,5.1,3l6-1.6a4.2,4.2,0,0,0,2.9-5.1l-1.5-6a4.3,4.3,0,0,0-5.1-3Z" transform="translate(-1348.8 42.7)" fill="#bc2e08"/><polygon points="160.9 148.4 167.7 153.6 169.3 145.1 161.1 147.5 160.9 148.4" fill="#ef5018"/><path d="M1515.9,106.5c.5-2.4,1.5-4.2,2.4-4.1s1.2,2.3.8,4.7-1.5,4.1-2.4,4S1515.5,108.9,1515.9,106.5Z" transform="translate(-1348.8 42.7)" fill="#ef5018"/><polygon points="166.1 146.3 125.3 114.8 115.8 166.1 165.2 151.4 166.1 146.3" fill="#fd6220"/><path d="M1513.3,106c.3-1.5.9-2.6,1.5-2.5s.7,1.4.4,2.8-.9,2.6-1.4,2.5S1513,107.5,1513.3,106Z" transform="translate(-1348.8 42.7)" fill="#fd6220"/><path d="M1515.2,106.3a3.4,3.4,0,0,0,.1-1.4l-43.6-20.1-4.8,26,47.9-3.1A4.7,4.7,0,0,0,1515.2,106.3Z" transform="translate(-1348.8 42.7)" fill="#ff7443"/><path d="M1477.3,99.3c-2.6,14.4-9.1,25.2-14.3,24.3s-7.3-13.5-4.6-27.8,9.1-25.3,14.3-24.3S1480,84.9,1477.3,99.3Z" transform="translate(-1348.8 42.7)" fill="#fd6220"/><path d="M1476.3,99.1c-2.4,12.8-8.1,22.5-12.8,21.6s-6.5-12-4.1-24.8,8.1-22.4,12.8-21.6S1478.7,86.3,1476.3,99.1Z" transform="translate(-1348.8 42.7)" fill="#bc2e08"/><path d="M1465.7,97.2c-1.9,10-.9,18.7,2.1,21.5,3.5-3.3,6.9-10.8,8.6-20s1.3-16.4-.5-20.9C1471.9,78.8,1467.6,86.9,1465.7,97.2Z" transform="translate(-1348.8 42.7)" fill="#a81c00"/><path d="M1472.3,112.1a62.1,62.1,0,0,0,5-26.6c-2,2.9-3.8,7.5-4.9,13A36.5,36.5,0,0,0,1472.3,112.1Z" transform="translate(-1348.8 42.7)" fill="#751100"/><path d="M1670.7,72.9c-3.7.3-4.6,2.7-4.6,2.7l-3.1,7.6-1.2,2.9-47.2,107.4c-1.2,3-6,.8-6,.8a3.7,3.7,0,0,1-2.2-4L1655,79.5h0l3.2-7.6v-.2a7.4,7.4,0,0,0-1.2-5.2s-5.7-9-3.5-14.4c1.4-3.3,16.6-36.7,18-36.6s4.4,1,8.1,2.2l9.7,4.5a52.2,52.2,0,0,1,7.1,4.7c1,1.1-12,35.5-13.3,38.9C1680.8,71.2,1670.7,72.9,1670.7,72.9Z" transform="translate(-1348.8 42.7)" fill="#bf8244"/><path d="M1671.4,15.2h0c-1.9.3-17.5,35.1-18.2,36.8-2.3,5.4,3.3,14.3,3.5,14.6a7.5,7.5,0,0,1,1.2,5v.2l-3.2,7.5h0l-48.6,110.9a4.1,4.1,0,0,0,2.4,4.4,10,10,0,0,0,4.3.7,2.5,2.5,0,0,0,2.1-1.6l47.2-107.4,4.3-10.6a5.6,5.6,0,0,1,4.4-2.6h0c.6-.1,10.3-1.8,12.6-7.2.6-1.6,4.2-11,7.5-20.3,6.5-18,6-18.5,5.7-18.8a48.7,48.7,0,0,0-7.1-4.8l-9.8-4.5c-4.1-1.4-7.1-2.3-8.2-2.3Zm-16.1,64.5h0l3.2-7.6v-.2a7.7,7.7,0,0,0-1.3-5.4c0-.1-5.6-8.9-3.4-14.2s16.1-35.4,17.8-36.5a52.8,52.8,0,0,1,7.9,2.3l9.7,4.5a42.8,42.8,0,0,1,6.9,4.6c.4,2-11.4,33.8-13.3,38.5s-12.1,7-12.2,7h-.6a5.2,5.2,0,0,0-4.2,2.7L1661.4,86l-47.1,107.4a2.2,2.2,0,0,1-1.8,1.4,7.9,7.9,0,0,1-3.8-.7,3.5,3.5,0,0,1-2-3.7Z" transform="translate(-1348.8 42.7)" fill="#9b6131"/><g opacity="0.6" style="mix-blend-mode:multiply"><path d="M1670.7,72.9c-3.7.3-4.6,2.7-4.6,2.7l-3.1,7.6-1.2,2.9-47.2,107.4c-1.2,3-6,.8-6,.8a3.8,3.8,0,0,1-2.2-2.8c.8,1.2,2.2,2.1,4.6,1.2l50.6-117.6a6.1,6.1,0,0,1,4.9-4.4c4-.5,9.1-7.3,14.4-22.5s5.9-22.2,2.7-23.8-10.5-7-13.6-.7-15.6,28.7-15.2,32.1,1.3,9,1.2,9c-1.5-2.8-4.1-8.7-2.5-12.7s16.6-36.7,18-36.6,4.4,1,8.1,2.2l9.7,4.5a52.2,52.2,0,0,1,7.1,4.7c1,1.1-12,35.5-13.3,38.9C1680.8,71.2,1670.7,72.9,1670.7,72.9Z" transform="translate(-1348.8 42.7)" fill="#bf8244"/></g><g opacity="0.5" style="mix-blend-mode:screen"><path d="M1660.4,69.9s-5.8-8.6-3.3-16.5,12.7-25.2,12.7-25.2-11.4,22.6-10.5,28.4,7.8,11.2,7.8,11.2-6.6-4.6-6-1.3S1662.2,72.2,1660.4,69.9Z" transform="translate(-1348.8 42.7)" fill="#bf8244"/></g><g opacity="0.5" style="mix-blend-mode:screen"><path d="M1608.7,189.9,1659.2,74s1,.3-2,9.5-43.9,99.3-43.9,99.3Z" transform="translate(-1348.8 42.7)" fill="#bf8244"/></g><path d="M1657.7,204.1c-74.5,5.5-140.2-6.5-187.7-20a25.7,25.7,0,0,1-7.7,9c66.8,25.3,143.4,28.8,195.5,27.4C1657.6,215.1,1657.6,209.6,1657.7,204.1Z" transform="translate(-1348.8 42.7)" fill="#93642d"/><path d="M1657.7,196.3a25.1,25.1,0,0,1-16.4-10.7c-51.8,3.5-100.1-2.2-141-11a26.7,26.7,0,0,1-20.4,5l-1.6-.4a23.5,23.5,0,0,1-5.9-.4h-.5a20.4,20.4,0,0,1-1.9,5.4c47.5,13.5,113.2,25.5,187.7,20,0-2.6.1-5.2.2-7.7Z" transform="translate(-1348.8 42.7)" fill="#9a632b"/><path d="M1636.7,170.9c-19.7,1.9-38.3,2.6-53.4,1.5a681.4,681.4,0,0,1-73.6-11.2,24.2,24.2,0,0,1-9.4,13.4c40.9,8.8,89.2,14.5,141,11A28,28,0,0,1,1636.7,170.9Z" transform="translate(-1348.8 42.7)" fill="#a46329"/><g opacity="0.2" style="mix-blend-mode:multiply"><path d="M1636.7,170.9c-19.7,1.9-38.3,2.6-53.4,1.5a681.4,681.4,0,0,1-73.6-11.2,20.1,20.1,0,0,1-1.6,4.3c62.7,14.5,110,12.7,129.3,10.9A25.9,25.9,0,0,1,1636.7,170.9Z" transform="translate(-1348.8 42.7)" fill="#6d4c20"/><path d="M1657.7,196.3l-1.6-.3,1.7,4.5c0-1.4.1-2.8.1-4.1Z" transform="translate(-1348.8 42.7)" fill="#6d4c20"/><path d="M1657.6,210.5c-6.6,4.4-28,6.6-58.6,5.8-54.9-4.3-97.7-15.6-130.7-29.4a25.3,25.3,0,0,1-6,6.2c66.8,25.3,143.4,28.8,195.5,27.4C1657.7,217.2,1657.6,213.9,1657.6,210.5Z" transform="translate(-1348.8 42.7)" fill="#6d4c20"/></g><path d="M1657.7,217.7c-42.8,2.5-83.3-3-83.3-3,35.1,5,62.5,5.8,83.4,4.8C1657.8,218.9,1657.7,218.3,1657.7,217.7Z" transform="translate(-1348.8 42.7)" fill="#93642d" opacity="0.5" style="mix-blend-mode:multiply"/><path d="M1636.9,166.2a347.7,347.7,0,0,1-70.6-.3,451.2,451.2,0,0,1-56.1-7.2h0a23,23,0,0,1-.6,2.8,657.9,657.9,0,0,0,73.7,10.8c15.1,1.4,33.7.6,53.4-1.4A25.7,25.7,0,0,1,1636.9,166.2Z" transform="translate(-1348.8 42.7)" fill="#b97534"/><g opacity="0.5" style="mix-blend-mode:multiply"><path d="M1636.9,166.2a347.7,347.7,0,0,1-70.6-.3,451.2,451.2,0,0,1-56.1-7.2h0c-.1.4-.1.7-.2,1,73.3,15,124.7,7.8,124.7,7.8l1,2.2c-45.5,4.1-88.7-.6-126-8.7a1.1,1.1,0,0,1-.1.5,657.9,657.9,0,0,0,73.7,10.8c15.1,1.4,33.7.6,53.4-1.4A25.7,25.7,0,0,1,1636.9,166.2Z" transform="translate(-1348.8 42.7)" fill="#b97534"/></g></g></g></g></svg>