<svg width="114" height="164" viewBox="0 0 114 164" fill="none" xmlns="http://www.w3.org/2000/svg">
<path d="M74.29 19.34C74.29 29.132 66.352 37.07 56.56 37.07C46.7679 37.07 38.83 29.132 38.83 19.34C38.83 9.54798 46.7679 1.60999 56.56 1.60999C66.352 1.60999 74.29 9.54798 74.29 19.34Z" stroke="#75787B"/>
<path d="M110.255 85.7161L110.256 85.7172C111.845 87.7578 111.466 90.7032 109.424 92.2846L109.423 92.2855C107.382 93.8746 104.437 93.4962 102.855 91.4538L102.855 91.4538L78.9953 60.6538L78.1001 59.4981V60.96V157.05C78.1001 159.644 76.0039 161.74 73.4101 161.74C70.8168 161.74 68.7201 159.634 68.7201 157.05V115.79V115.29H68.2201H44.5201H44.0201V115.79V157.05C44.0201 159.644 41.9239 161.74 39.3301 161.74C36.7368 161.74 34.6401 159.634 34.6401 157.05V61.44V59.9782L33.7448 61.1337L10.2548 91.4537L10.2547 91.4538C8.67428 93.4949 5.72848 93.8661 3.68617 92.2846C1.64515 90.7042 1.27396 87.7584 2.85539 85.7161L33.915 45.6265C34.3802 45.0272 34.9642 44.5934 35.6236 44.2821L35.6694 44.2604L35.7101 44.23C36.149 43.9007 36.6749 43.71 37.2501 43.71H75.5101C75.8852 43.71 76.2439 43.7932 76.5705 43.9439L76.6112 43.9627L76.6546 43.974C77.6382 44.229 78.5396 44.7722 79.2056 45.6272L110.255 85.7161Z" stroke="#75787B"/>
</svg>
